<svg xmlns="http://www.w3.org/2000/svg" viewBox="0 0 760 220" role="img" aria-labelledby="title desc">
  <title id="title">Aronage Energy</title>
  <desc id="desc">Green leaf and lightning symbol with Aronage Energy wordmark</desc>
  <defs>
    <linearGradient id="leaf" x1="0" y1="0" x2="1" y2="1">
      <stop offset="0" stop-color="#7be20d"/>
      <stop offset=".48" stop-color="#1db331"/>
      <stop offset="1" stop-color="#007739"/>
    </linearGradient>
    <linearGradient id="ink" x1="0" y1="0" x2="0" y2="1">
      <stop offset="0" stop-color="#263b46"/>
      <stop offset="1" stop-color="#101e27"/>
    </linearGradient>
  </defs>
  <rect width="760" height="220" rx="24" fill="#fff"/>
  <g transform="translate(28 18)">
    <path d="M38 164C61 106 87 54 112 21c8-10 17-13 31-13h57l-31 62c-43 9-79 35-95 71-4 10-5 20-4 31z" fill="url(#leaf)"/>
    <path d="M72 174c13-53 43-86 91-102 18-6 35-16 49-30-1 61-9 104-39 127-24 18-62 21-101 5z" fill="url(#leaf)"/>
    <path d="M139 82l-44 57h33l-27 45 71-70h-36z" fill="#fff"/>
  </g>
  <text x="245" y="125" fill="url(#ink)" font-family="Arial, Helvetica, sans-serif" font-size="90" font-weight="700" letter-spacing="-4">Aronage</text>
  <g fill="#07983b" font-family="Arial, Helvetica, sans-serif">
    <path d="M250 155h88v4h-88zm403 0h73v4h-73z"/>
    <text x="355" y="174" font-size="28" font-weight="700" letter-spacing="15">ENERGY</text>
  </g>
</svg>
